# xmcd CD database file
#
# Track frame offsets:
#	150
#	16372
#	28771
#	42108
#	61992
#	91831
#	106993
#	123912
#	132782
#	147587
#	171473
#	183905
#	196625
#	216018
#	227425
#	246877
#	266045
#	289789
#	309913
#	321660
#
# Disc length: 4456 seconds
#
# Revision: 0
# Processed by: cddbd v1.5.2PL0 Copyright (c) Steve Scherf et al.
# Submitted via: CDex 1.77
#
DISCID=1c116614
DTITLE=I 100 capolavori del Jazz (collana) - I 100 CAPOLAVORI DEL JAZZ CD 04
DYEAR=2016
DGENRE=Jazz
TTITLE0=Coleman Hawkins_Honeysuckle Rose
TTITLE1=Stan Getz_Stella By Starlight
TTITLE2=Thelonius Monk_Straight No Chaser
TTITLE3=Wayne Shorter_Mack The Knife
TTITLE4=Wes Montogomery_Old Folks
TTITLE5=Woody Herman and His Orchestra_Laura
TTITLE6=Franco Larry and Dixinitaly Jazz Band_Mood Indigo
TTITLE7=Joao Gilberto_Desafinado
TTITLE8=B.B.King and The Duke Ellington Orchestra_Solitude
TTITLE9=Count Basie and His Orchestra_Shiny Stockings
TTITLE10=Doris Day_Cheek To Cheek
TTITLE11=Django Reinhardt_On The Sunny Side Of The Street
TTITLE12=Jay Johnson_Pennies From Heaven
TTITLE13=Lee Konitz_Lady Be Good
TTITLE14=Archie Shepp and Just in Time Quartet_This is Always
TTITLE15=Marty Paich_Things Ain't What They Used To Be
TTITLE16=Gianni Basso and Franco Cerri_Falling in Love With You
TTITLE17=Modern Jazz Quartet_All Of You/From "Silk Stockings"
TTITLE18=Nat King Cole_You Stepped Out Of a Dream
TTITLE19=Oscar Peterson Trio_Love Walked In
EXTD=YEAR: 2016
EXTT0=
EXTT1=
EXTT2=
EXTT3=
EXTT4=
EXTT5=
EXTT6=
EXTT7=
EXTT8=
EXTT9=
EXTT10=
EXTT11=
EXTT12=
EXTT13=
EXTT14=
EXTT15=
EXTT16=
EXTT17=
EXTT18=
EXTT19=
PLAYORDER=
